<svg width="88" height="43" viewBox="0 0 88 43" fill="none" xmlns="http://www.w3.org/2000/svg">
<path d="M15.672 18V6.816L11.304 15.144H9.456L5.088 6.816V18H1.776V0.959999H5.328L10.368 10.656L15.456 0.959999H18.984V18H15.672ZM29.8136 18.12C28.5656 18.12 27.4296 17.88 26.4056 17.4C25.3976 16.92 24.5256 16.272 23.7896 15.456C23.0696 14.624 22.5096 13.696 22.1096 12.672C21.7096 11.632 21.5096 10.568 21.5096 9.48C21.5096 8.344 21.7176 7.264 22.1336 6.24C22.5496 5.2 23.1336 4.28 23.8856 3.48C24.6376 2.664 25.5176 2.024 26.5256 1.56C27.5496 1.08 28.6696 0.839999 29.8856 0.839999C31.1176 0.839999 32.2376 1.088 33.2456 1.584C34.2696 2.08 35.1416 2.744 35.8616 3.576C36.5976 4.408 37.1576 5.344 37.5416 6.384C37.9416 7.408 38.1416 8.456 38.1416 9.528C38.1416 10.648 37.9336 11.728 37.5176 12.768C37.1016 13.792 36.5176 14.712 35.7656 15.528C35.0296 16.328 34.1496 16.96 33.1256 17.424C32.1176 17.888 31.0136 18.12 29.8136 18.12ZM24.8696 9.48C24.8696 10.472 25.0616 11.4 25.4456 12.264C25.8456 13.128 26.4136 13.832 27.1496 14.376C27.9016 14.92 28.7976 15.192 29.8376 15.192C30.9096 15.192 31.8136 14.912 32.5496 14.352C33.2856 13.792 33.8456 13.072 34.2296 12.192C34.6136 11.312 34.8056 10.408 34.8056 9.48C34.8056 8.488 34.6056 7.56 34.2056 6.696C33.8056 5.832 33.2296 5.136 32.4776 4.608C31.7416 4.064 30.8616 3.792 29.8376 3.792C28.7656 3.792 27.8616 4.072 27.1256 4.632C26.3896 5.192 25.8296 5.912 25.4456 6.792C25.0616 7.656 24.8696 8.552 24.8696 9.48ZM43.9943 7.056V18H40.6823V0.959999H43.3223L52.1302 12.192V0.983999H55.4423V18H52.6823L43.9943 7.056ZM70.8189 15.096V18H58.9869V0.959999H70.6029V3.864H62.2989V7.968H69.4749V10.656H62.2989V15.096H70.8189ZM75.321 0.959999L79.521 8.976L83.793 0.959999H87.369L81.177 12.048V18H77.889V12L71.721 0.959999H75.321Z" fill="#FFFBFB"/>
<path d="M0.744 33.36C0.744 32.32 0.928 31.296 1.296 30.288C1.68 29.28 2.232 28.368 2.952 27.552C3.672 26.736 4.552 26.088 5.592 25.608C6.632 25.112 7.816 24.864 9.144 24.864C10.696 24.864 12.048 25.208 13.2 25.896C14.352 26.584 15.208 27.48 15.768 28.584L13.224 30.336C12.936 29.696 12.56 29.192 12.096 28.824C11.632 28.456 11.128 28.192 10.584 28.032C10.056 27.872 9.544 27.792 9.048 27.792C8.216 27.792 7.488 27.96 6.864 28.296C6.256 28.632 5.744 29.072 5.328 29.616C4.912 30.16 4.6 30.768 4.392 31.44C4.2 32.112 4.104 32.784 4.104 33.456C4.104 34.464 4.312 35.408 4.728 36.288C5.144 37.152 5.728 37.856 6.48 38.4C7.232 38.944 8.104 39.216 9.096 39.216C9.608 39.216 10.136 39.128 10.68 38.952C11.24 38.776 11.752 38.496 12.216 38.112C12.68 37.728 13.04 37.232 13.296 36.624L16.008 38.184C15.656 39.032 15.104 39.752 14.352 40.344C13.6 40.92 12.752 41.368 11.808 41.688C10.864 41.992 9.928 42.144 9 42.144C7.784 42.144 6.672 41.896 5.664 41.4C4.672 40.888 3.808 40.216 3.072 39.384C2.336 38.536 1.76 37.592 1.344 36.552C0.944 35.496 0.744 34.432 0.744 33.36ZM29.6051 42H26.3891V34.944C26.3891 33.968 26.1971 33.24 25.8131 32.76C25.4451 32.28 24.9331 32.04 24.2771 32.04C23.8771 32.04 23.4611 32.152 23.0291 32.376C22.6131 32.6 22.2291 32.912 21.8771 33.312C21.5411 33.696 21.2931 34.144 21.1331 34.656V42H17.9171V24.48H21.1331V31.752C21.5971 30.952 22.2291 30.328 23.0291 29.88C23.8291 29.432 24.7011 29.208 25.6451 29.208C26.7171 29.208 27.5411 29.448 28.1171 29.928C28.6931 30.408 29.0851 31.024 29.2931 31.776C29.5011 32.528 29.6051 33.32 29.6051 34.152V42ZM38.2335 42.24C36.8735 42.24 35.6975 41.944 34.7055 41.352C33.7295 40.76 32.9695 39.976 32.4255 39C31.8815 38.008 31.6095 36.936 31.6095 35.784C31.6095 34.6 31.8735 33.512 32.4015 32.52C32.9455 31.512 33.7135 30.712 34.7055 30.12C35.6975 29.512 36.8815 29.208 38.2575 29.208C39.6335 29.208 40.8095 29.512 41.7855 30.12C42.7615 30.712 43.5055 31.504 44.0175 32.496C44.5455 33.472 44.8095 34.528 44.8095 35.664C44.8095 36.08 44.7855 36.44 44.7375 36.744H35.0175C35.0975 37.72 35.4575 38.488 36.0975 39.048C36.7535 39.608 37.5055 39.888 38.3535 39.888C38.9935 39.888 39.5935 39.736 40.1535 39.432C40.7295 39.112 41.1215 38.696 41.3295 38.184L44.0895 38.952C43.6255 39.912 42.8815 40.704 41.8575 41.328C40.8335 41.936 39.6255 42.24 38.2335 42.24ZM34.9455 34.704H41.5215C41.4255 33.76 41.0655 33 40.4415 32.424C39.8335 31.832 39.0895 31.536 38.2095 31.536C37.3455 31.536 36.6015 31.832 35.9775 32.424C35.3695 33 35.0255 33.76 34.9455 34.704ZM55.3607 42L51.6887 36.576L49.9847 38.256V42H46.7687V24.48H49.9847V35.088L55.0487 29.448H58.4567L53.7767 34.776L58.7927 42H55.3607ZM65.3273 42.24C63.9673 42.24 62.7913 41.944 61.7993 41.352C60.8233 40.76 60.0633 39.976 59.5193 39C58.9753 38.008 58.7033 36.936 58.7033 35.784C58.7033 34.6 58.9673 33.512 59.4953 32.52C60.0393 31.512 60.8073 30.712 61.7993 30.12C62.7913 29.512 63.9753 29.208 65.3513 29.208C66.7273 29.208 67.9033 29.512 68.8793 30.12C69.8553 30.712 70.5993 31.504 71.1113 32.496C71.6393 33.472 71.9033 34.528 71.9033 35.664C71.9033 36.08 71.8793 36.44 71.8313 36.744H62.1113C62.1913 37.72 62.5513 38.488 63.1913 39.048C63.8473 39.608 64.5993 39.888 65.4473 39.888C66.0873 39.888 66.6873 39.736 67.2473 39.432C67.8233 39.112 68.2153 38.696 68.4233 38.184L71.1833 38.952C70.7193 39.912 69.9753 40.704 68.9513 41.328C67.9273 41.936 66.7193 42.24 65.3273 42.24ZM62.0393 34.704H68.6153C68.5193 33.76 68.1593 33 67.5353 32.424C66.9273 31.832 66.1833 31.536 65.3033 31.536C64.4393 31.536 63.6953 31.832 63.0713 32.424C62.4633 33 62.1193 33.76 62.0393 34.704ZM81.3504 32.208C80.3744 32.208 79.5024 32.4 78.7344 32.784C77.9664 33.152 77.4144 33.688 77.0784 34.392V42H73.8624V29.424H76.8144V32.112C77.2464 31.248 77.8064 30.568 78.4944 30.072C79.1984 29.576 79.9344 29.304 80.7024 29.256C81.0384 29.256 81.2544 29.264 81.3504 29.28V32.208Z" fill="#68E2B1"/>
</svg>
