<svg width="464" height="413" viewBox="0 0 464 413" fill="none" xmlns="http://www.w3.org/2000/svg">
<g clip-path="url(#clip0)">
<path d="M94.6399 296.119H51.8936C50.7361 296.118 49.6264 295.667 48.8079 294.866C47.9894 294.064 47.5289 292.978 47.5275 291.844V153.943C47.5289 152.81 47.9894 151.723 48.8079 150.922C49.6264 150.12 50.7361 149.67 51.8936 149.668H94.6399C95.7974 149.67 96.9072 150.12 97.7257 150.922C98.5442 151.723 99.0047 152.81 99.0061 153.943V291.844C99.0047 292.978 98.5442 294.064 97.7257 294.866C96.9072 295.667 95.7974 296.118 94.6399 296.119Z" fill="#6C63FF"/>
<path d="M172.593 296.119H129.847C128.689 296.118 127.58 295.667 126.761 294.866C125.943 294.064 125.482 292.978 125.481 291.844V99.2203C125.482 98.087 125.943 97.0005 126.761 96.1991C127.58 95.3978 128.689 94.9471 129.847 94.9458H172.593C173.751 94.9471 174.86 95.3978 175.679 96.1991C176.497 97.0005 176.958 98.087 176.959 99.2203V291.844C176.958 292.978 176.497 294.064 175.679 294.866C174.86 295.667 173.751 296.118 172.593 296.119Z" fill="#6C63FF"/>
<path d="M250.546 296.119H207.8C206.643 296.118 205.533 295.667 204.714 294.866C203.896 294.064 203.435 292.978 203.434 291.844V153.943C203.435 152.81 203.896 151.723 204.714 150.922C205.533 150.12 206.643 149.67 207.8 149.668H250.546C251.704 149.67 252.814 150.12 253.632 150.922C254.451 151.723 254.911 152.81 254.912 153.943V291.844C254.911 292.978 254.451 294.064 253.632 294.866C252.814 295.667 251.704 296.118 250.546 296.119Z" fill="#6C63FF"/>
<path d="M328.5 296.119H285.753C284.622 296.143 283.527 295.727 282.709 294.962C281.891 294.197 281.415 293.146 281.387 292.038V77.4257C281.415 76.3183 281.891 75.2669 282.709 74.502C283.527 73.7371 284.622 73.321 285.753 73.3448H328.5C329.631 73.321 330.725 73.7371 331.544 74.502C332.362 75.2669 332.838 76.3183 332.866 77.4257V292.038C332.838 293.146 332.362 294.197 331.544 294.962C330.725 295.727 329.631 296.143 328.5 296.119Z" fill="#6C63FF"/>
<path d="M406.453 296.119H363.706C362.549 296.118 361.439 295.667 360.621 294.866C359.802 294.064 359.342 292.978 359.34 291.845V38.7375C359.342 37.6042 359.802 36.5177 360.621 35.7164C361.439 34.915 362.549 34.4643 363.706 34.463H406.453C407.61 34.4643 408.72 34.915 409.539 35.7164C410.357 36.5177 410.817 37.6042 410.819 38.7375V291.845C410.817 292.978 410.357 294.064 409.539 294.866C408.72 295.667 407.61 296.118 406.453 296.119Z" fill="#6C63FF"/>
<path d="M73.2669 132.388C78.1407 132.388 82.0918 128.519 82.0918 123.747C82.0918 118.975 78.1407 115.107 73.2669 115.107C68.393 115.107 64.442 118.975 64.442 123.747C64.442 128.519 68.393 132.388 73.2669 132.388Z" fill="#68E2B1"/>
<path d="M151.22 76.2252C156.094 76.2252 160.045 72.3567 160.045 67.5847C160.045 62.8128 156.094 58.9443 151.22 58.9443C146.346 58.9443 142.395 62.8128 142.395 67.5847C142.395 72.3567 146.346 76.2252 151.22 76.2252Z" fill="#68E2B1"/>
<path d="M229.173 132.388C234.047 132.388 237.998 128.519 237.998 123.747C237.998 118.975 234.047 115.107 229.173 115.107C224.299 115.107 220.348 118.975 220.348 123.747C220.348 128.519 224.299 132.388 229.173 132.388Z" fill="#68E2B1"/>
<path d="M307.126 48.8637C312 48.8637 315.951 44.9953 315.951 40.2233C315.951 35.4513 312 31.5829 307.126 31.5829C302.253 31.5829 298.302 35.4513 298.302 40.2233C298.302 44.9953 302.253 48.8637 307.126 48.8637Z" fill="#68E2B1"/>
<path d="M385.08 17.1822C389.953 17.1822 393.904 13.3137 393.904 8.54178C393.904 3.76981 389.953 -0.0986328 385.08 -0.0986328C380.206 -0.0986328 376.255 3.76981 376.255 8.54178C376.255 13.3137 380.206 17.1822 385.08 17.1822Z" fill="#68E2B1"/>
<path d="M456.543 297.724H0.819935C0.637359 297.724 0.46226 297.653 0.333159 297.526C0.204058 297.4 0.131531 297.229 0.131531 297.05C0.131531 296.871 0.204058 296.7 0.333159 296.573C0.46226 296.447 0.637359 296.376 0.819935 296.376H456.543C456.726 296.376 456.901 296.447 457.03 296.573C457.159 296.7 457.232 296.871 457.232 297.05C457.232 297.229 457.159 297.4 457.03 297.526C456.901 297.653 456.726 297.724 456.543 297.724Z" fill="white"/>
<path d="M570.13 412.98H347.087C346.905 412.98 346.73 412.909 346.601 412.783C346.471 412.656 346.399 412.485 346.399 412.306C346.399 412.127 346.471 411.956 346.601 411.829C346.73 411.703 346.905 411.632 347.087 411.632H570.13C570.313 411.632 570.488 411.703 570.617 411.829C570.746 411.956 570.819 412.127 570.819 412.306C570.819 412.485 570.746 412.656 570.617 412.783C570.488 412.909 570.313 412.98 570.13 412.98Z" fill="white"/>
<path d="M383.949 286.769C384.515 286.218 384.951 285.552 385.226 284.819C385.5 284.085 385.608 283.301 385.54 282.523C385.472 281.744 385.23 280.99 384.833 280.312C384.435 279.635 383.89 279.051 383.237 278.603L385.943 266.68L378.944 263.302L375.363 280.192C374.666 281.317 374.414 282.652 374.655 283.947C374.897 285.241 375.614 286.403 376.673 287.214C377.731 288.025 379.056 288.427 380.397 288.345C381.738 288.263 383.002 287.702 383.949 286.769Z" fill="#FFB7B7"/>
<path d="M460.488 287.03C461.009 286.438 461.391 285.741 461.607 284.989C461.823 284.237 461.868 283.447 461.739 282.676C461.61 281.905 461.309 281.171 460.859 280.526C460.409 279.881 459.82 279.34 459.133 278.942L460.889 266.85L453.644 264.013L451.409 281.123C450.802 282.297 450.657 283.648 451 284.92C451.342 286.192 452.15 287.297 453.269 288.025C454.388 288.753 455.741 289.054 457.072 288.87C458.402 288.687 459.618 288.032 460.488 287.03L460.488 287.03Z" fill="#FFB7B7"/>
<path d="M405.928 405.71L398.79 405.709L395.395 378.755L405.929 378.756L405.928 405.71Z" fill="#FFB7B7"/>
<path d="M407.748 412.484L384.734 412.483V412.198C384.734 409.872 385.678 407.641 387.358 405.997C389.038 404.352 391.316 403.428 393.691 403.428H393.692L407.748 403.428L407.748 412.484Z" fill="#2F2E41"/>
<path d="M429.796 405.71L422.659 405.709L419.264 378.755L429.798 378.756L429.796 405.71Z" fill="#FFB7B7"/>
<path d="M431.617 412.484L408.603 412.483V412.198C408.603 409.872 409.547 407.641 411.227 405.997C412.907 404.352 415.185 403.428 417.561 403.428H417.561L431.617 403.428L431.617 412.484Z" fill="#2F2E41"/>
<path d="M444.167 178.94L451.863 176.221C451.863 176.221 455.13 176.9 455.13 185.573C455.13 194.247 463.805 275.137 463.805 275.137L448.623 279.051L440.041 202.306L444.167 178.94Z" fill="#2F2E41"/>
<path d="M392.739 178.94L385.043 176.221C385.043 176.221 381.776 176.9 381.776 185.573C381.776 194.247 373.101 275.137 373.101 275.137L388.283 279.051L396.864 202.306L392.739 178.94Z" fill="#2F2E41"/>
<path d="M392.838 271.196L390.734 331.96L395.391 399.175L407.392 399.446L409.138 336.746L419.035 305.396L418.037 397.798L431.625 397.639L440.041 334.068C440.041 334.068 451.155 281.456 444.992 271.196L416.608 261.955L392.838 271.196Z" fill="#2F2E41"/>
<path d="M393.069 263.875L392.384 278.492C392.384 278.492 401.96 283.158 418.794 280.316C435.627 277.473 446.816 279.347 446.816 279.347L445.524 260.714L393.069 263.875Z" fill="white"/>
<path d="M384.737 176.436L406.872 166.94L408.192 161.966L429.725 162.577L430.655 167.658L451.863 176.221L442.519 208.032L443.478 230.41L455.13 271.197C455.13 271.197 445.302 279.369 421.689 275.853L417.615 267.815L415.123 276.315C415.123 276.315 394.418 283.773 388.679 274.065L392.838 203.937L384.737 176.436Z" fill="#2F2E41"/>
<path d="M418.762 157.293C426.659 157.293 433.061 151.025 433.061 143.293C433.061 135.562 426.659 129.294 418.762 129.294C410.865 129.294 404.464 135.562 404.464 143.293C404.464 151.025 410.865 157.293 418.762 157.293Z" fill="#FFB7B7"/>
<path d="M435.752 137.869C435.496 136.729 435.004 135.654 434.307 134.708C434.029 132.092 433.138 129.575 431.703 127.352C431.141 126.31 430.343 125.409 429.37 124.716C428.256 124.087 426.984 123.777 425.7 123.82C425.466 123.816 425.047 123.885 424.67 123.902C424.429 123.829 424.185 123.763 423.941 123.702C423.798 123.391 423.515 122.486 423.437 122.548L422.371 123.376C421.921 123.3 421.468 123.24 421.014 123.193C420.849 122.731 420.683 122.269 420.518 121.807C420.25 122.22 420.014 122.653 419.814 123.102C419.362 123.08 418.909 123.072 418.457 123.079L417.551 122.227C417.498 122.465 417.375 122.682 417.198 122.852C417.02 123.022 416.796 123.138 416.553 123.185C416.136 123.227 415.721 123.282 415.308 123.347C415.274 123.347 415.24 123.347 415.207 123.346C412.977 123.291 410.579 123.194 408.714 124.392C407.842 124.978 407.132 125.768 406.648 126.689C406.419 126.841 406.19 126.991 405.969 127.152C405.221 127.652 404.573 128.281 404.056 129.009C403.681 129.636 403.396 130.312 403.21 131.016C402.499 133.135 402.169 135.36 402.236 137.59C402.312 139.835 403.178 141.986 404.686 143.679C405.642 144.685 406.857 145.428 407.815 146.432C409.786 148.501 410.156 151.386 411.842 153.575C413.625 155.89 416.881 157.413 419.739 157.85C421.458 158.104 423.211 158.022 424.898 157.61C426.584 157.199 428.171 156.465 429.567 155.45C430.236 154.994 430.806 154.41 431.24 153.733C432.232 152.052 431.811 149.94 432.18 148.033C432.87 144.459 436.355 141.459 435.752 137.869Z" fill="#2F2E41"/>
<path d="M72.7961 124.288L71.9742 123.207L151.221 65.4416L228.921 122.187L307.686 38.4582L307.827 38.4016L384.267 7.51221L384.793 8.75846L308.493 39.5905L229.093 123.994L151.22 67.1226L72.7961 124.288Z" fill="#68E2B1"/>
</g>
<defs>
<clipPath id="clip0">
<rect width="464" height="413" fill="white"/>
</clipPath>
</defs>
</svg>
